<svg id="Bus" xmlns="http://www.w3.org/2000/svg" width="40" height="36.415" viewBox="0 0 40 36.415">
  <rect id="Rectangle_350" data-name="Rectangle 350" width="4.1" height="6.485" transform="translate(0 9.6)" fill="#113a55"/>
  <rect id="Rectangle_351" data-name="Rectangle 351" width="4" height="6.485" transform="translate(36 9.6)" fill="#113a55"/>
  <path id="Path_874" data-name="Path 874" d="M38.45,12.2,8.4,12.45V25.3L6.8,26.9v8.9H40.05V27.25l-1.6-1.3Zm-27.7,1.25H22.8V22.4H10.75Zm3,19.5a1.061,1.061,0,1,1,0,.05ZM28.2,32.1H18.7v-.9h9.5Zm0-1.8H18.7v-.9h9.5Zm0-1.95H18.7v-.9h9.5Zm4.4,4.55a1.066,1.066,0,1,1,0,.1Zm3.2-10.55H24.25v-8.9H35.8Z" transform="translate(-3.4 -6.1)" fill="#113a55"/>
  <rect id="Rectangle_352" data-name="Rectangle 352" width="4.5" height="5.965" transform="translate(5 30.45)" fill="#113a55"/>
  <rect id="Rectangle_353" data-name="Rectangle 353" width="4.35" height="5.965" transform="translate(30.75 30.45)" fill="#113a55"/>
  <path id="Path_875" data-name="Path 875" d="M40.05,2.75S36.95,0,34.1,0H15.5C13.2.05,10,2.75,10,2.75V5.1H40.05ZM13.45,4.2A1.2,1.2,0,1,1,14.65,3a1.2,1.2,0,0,1-1.2,1.2Zm3.95,0A1.2,1.2,0,1,1,18.6,3a1.2,1.2,0,0,1-1.2,1.2Zm14.95,0a1.175,1.175,0,1,0-.05,0Zm3.95,0a1.265,1.265,0,1,0-.05,0Z" transform="translate(-5)" fill="#113a55"/>
</svg>
