<svg xmlns="http://www.w3.org/2000/svg" width="40" height="30.713" viewBox="0 0 40 30.713">
  <path id="Envelope_5" data-name="Envelope 5" d="M20-.005H36.2a3.7,3.7,0,0,1,3.1,1.4,3.15,3.15,0,0,1,.7,2v23.95a3.5,3.5,0,0,1-3,3.35H3.9a3.8,3.8,0,0,1-3.2-1.4,3.15,3.15,0,0,1-.7-2q0-11.9,0-23.9a3.6,3.6,0,0,1,3.75-3.4Zm0,2.8H3.7c-.55,0-.85.25-.8.8a8.7,8.7,0,0,0,.15,1.45,7.635,7.635,0,0,0,3.2,4.65l9.3,7.3c.95.75,1.95,1.45,2.95,2.15a2.65,2.65,0,0,0,2.95,0,19.55,19.55,0,0,0,1.9-1.25l8.75-6.85a16.027,16.027,0,0,0,3.25-2.85,6.854,6.854,0,0,0,1.8-4.4c-.05-.8-.2-1-1-1Zm-17.1,7.9v16.55a.65.65,0,0,0,.6.7H36.25c.6,0,.85-.25.85-.9V10.995a1.243,1.243,0,0,0-.05-.4l-1.5,1.4L25.1,20.145a11.8,11.8,0,0,1-3.25,1.9,4.9,4.9,0,0,1-2.25.3,8.2,8.2,0,0,1-3.95-1.7c-1.15-.85-2.3-1.85-3.45-2.75Z" transform="translate(0 0.011)" fill="#113a55"/>
</svg>
