<svg xmlns="http://www.w3.org/2000/svg" width="35.724" height="22.217" viewBox="0 0 35.724 22.217">
  <g id="Hamburger_Menu" data-name="Hamburger Menu" transform="translate(0 0.006)">
    <g id="editor_list_view_hambuger_menu_outline_stroke" data-name="editor list view hambuger menu outline stroke" transform="translate(0 -0.006)">
      <path id="path-1" d="M.929,0A.971.971,0,0,0,0,1,.971.971,0,0,0,.929,2.01H34.795A.971.971,0,0,0,35.724,1,.971.971,0,0,0,34.795,0Zm0,10.1a1.01,1.01,0,0,0,0,2.014H34.795a1.01,1.01,0,0,0,0-2.014Zm0,10.1a1.031,1.031,0,0,0,0,2.014H34.795a1.031,1.031,0,0,0,0-2.014Z" transform="translate(0 0.006)" fill="#fff"/>
      <path id="path-1-2" data-name="path-1" d="M.929,0A.971.971,0,0,0,0,1,.971.971,0,0,0,.929,2.01H34.795A.971.971,0,0,0,35.724,1,.971.971,0,0,0,34.795,0Zm0,10.1a1.01,1.01,0,0,0,0,2.014H34.795a1.01,1.01,0,0,0,0-2.014Zm0,10.1a1.031,1.031,0,0,0,0,2.014H34.795a1.031,1.031,0,0,0,0-2.014Z" transform="translate(0 0.006)" fill="none"/>
    </g>
  </g>
</svg>
