<svg xmlns="http://www.w3.org/2000/svg" width="8.706" height="12.971" viewBox="0 0 8.706 12.971">
  <path id="Left_Arrow" data-name="Left Arrow" d="M6.506,5.778C7.993,4,9.433,2.259,10.891.546a1.76,1.76,0,0,1,.894-.527.96.96,0,0,1,1.082.574,1.085,1.085,0,0,1-.151,1.27L9.593,5.618,7.447,8.177a1.125,1.125,0,0,1-1.882,0C3.844,6.107,2.112,4.047.409,1.958a1.769,1.769,0,0,1-.367-.875A1.032,1.032,0,0,1,.776.048,1.107,1.107,0,0,1,2.037.424C3.157,1.76,4.267,3.1,5.387,4.432Z" transform="translate(8.686 -0.036) rotate(90)" fill="#1c5687"/>
</svg>
