<svg xmlns="http://www.w3.org/2000/svg" width="21" height="21.017" viewBox="0 0 21 21.017">
  <g id="Magnifying_Glass" data-name="Magnifying Glass" transform="translate(-43.015 -5.993)">
    <path id="Magnifying_Glass-2" data-name="Magnifying Glass" d="M14.478,15.186a8.723,8.723,0,0,1-12.462-.973,8.65,8.65,0,0,1,12.121-12.2,8.361,8.361,0,0,1,3.155,6.021A8.633,8.633,0,0,1,15.135,14.5l.289.237a.746.746,0,0,0,.815.342.973.973,0,0,1,.894.342l3.6,3.628A1.227,1.227,0,0,1,19,20.786l-3.6-3.628a1.209,1.209,0,0,1-.342-1.131.421.421,0,0,0-.079-.316C14.819,15.528,14.635,15.37,14.478,15.186Zm1.393-6.442a7.151,7.151,0,1,0-2.132,5.094A7.151,7.151,0,0,0,15.871,8.744Z" transform="translate(42.92 5.865)" fill="#fff"/>
  </g>
</svg>
