<svg xmlns="http://www.w3.org/2000/svg" width="15.529" height="13.765" viewBox="0 0 15.529 13.765">
  <path id="X_-_Close" data-name="X - Close" d="M616.85,1010.422c-1.818-1.548-3.667-3.077-5.555-4.655l1.429-1.189c1.421-1.189,2.837-2.367,4.255-3.56a1.175,1.175,0,0,0,.4-1.335,1.1,1.1,0,0,0-1.1-.779,1.889,1.889,0,0,0-.931.39c-1.908,1.557-3.795,3.135-5.686,4.71l-1.762-1.476-3.986-3.318a1.153,1.153,0,0,0-1.348-.159,1.019,1.019,0,0,0-.61,1.149,1.864,1.864,0,0,0,.56.949c1.818,1.547,3.665,3.076,5.553,4.654l-1.427,1.189c-1.422,1.189-2.837,2.367-4.256,3.56a1.176,1.176,0,0,0-.4,1.335,1.1,1.1,0,0,0,1.1.779,1.875,1.875,0,0,0,.929-.39c1.909-1.557,3.8-3.135,5.687-4.71l1.762,1.476,3.985,3.318a1.155,1.155,0,0,0,1.349.159,1.02,1.02,0,0,0,.61-1.149A1.863,1.863,0,0,0,616.85,1010.422Z" transform="translate(617.448 1012.667) rotate(180)" fill="#fff"/>
</svg>
