<svg xmlns="http://www.w3.org/2000/svg" width="20.9" height="17.504" viewBox="0 0 20.9 17.504">
  <path id="Path_1036" data-name="Path 1036" d="M57.3,5.1a11.2,11.2,0,0,1-2.8.9,5.6,5.6,0,0,0,2.1-2.8,14.2,14.2,0,0,1-2.2,1.2l-.5-.5a3.6,3.6,0,0,0-2.8-1.4,4.1,4.1,0,0,0-4.2,4.2,2.7,2.7,0,0,0,.1.7h-.1c-4.2,0-6.9-.9-9.1-3.5A4.1,4.1,0,0,0,37.1,6a4.3,4.3,0,0,0,2.1,3.5,5.1,5.1,0,0,1-2.1-.7c0,2.1,2.9,4.5,4.9,4.9-.7.7-3.2.1-3.5,0a4.3,4.3,0,0,0,4.2,2.8,8.3,8.3,0,0,1-5.2,1.7h-1a13.4,13.4,0,0,0,7,1.8c7.9,0,11.8-6.2,11.8-11.8V7.5a8.9,8.9,0,0,0,2.1-2.3" transform="translate(-36.5 -2.499)" fill="#fff"/>
</svg>
