<svg id="Search_Arrow" data-name="Search Arrow" xmlns="http://www.w3.org/2000/svg" width="24.804" height="20" viewBox="0 0 24.804 20">
  <path id="Arrow" d="M1.194,11.286H20.517l-6.644,6.644a1.237,1.237,0,1,0,1.749,1.749l8.763-8.763h0l.16-.193.048-.1.064-.112.032-.128.032-.1a1.236,1.236,0,0,0,.032-.241h0a1.252,1.252,0,0,0-.032-.241L24.69,9.7l-.032-.128-.064-.128-.048-.1-.16-.193L15.622.4a1.237,1.237,0,1,0-1.749,1.749L20.517,8.8H1.194a1.244,1.244,0,1,0,0,2.488Z" transform="translate(0.05 -0.043)" fill="#113a55"/>
</svg>
