<svg xmlns="http://www.w3.org/2000/svg" xmlns:xlink="http://www.w3.org/1999/xlink" width="8.647" height="13.564" viewBox="0 0 8.647 13.564">
  <defs>
    <clipPath id="clip-path">
      <rect id="Rectangle_407" data-name="Rectangle 407" width="8.647" height="13.564" fill="none"/>
    </clipPath>
  </defs>
  <g id="Pause" clip-path="url(#clip-path)">
    <path id="Path_948" data-name="Path 948" d="M1.255,13.531h0A1.255,1.255,0,0,1,0,12.276V1.222a1.272,1.272,0,1,1,2.543,0V12.276a1.255,1.255,0,0,1-1.289,1.255" transform="translate(0 0.033)" fill="#fff"/>
    <path id="Path_949" data-name="Path 949" d="M19.355,13.531h0A1.255,1.255,0,0,1,18.1,12.276V1.222a1.272,1.272,0,1,1,2.543,0V12.276a1.255,1.255,0,0,1-1.289,1.255" transform="translate(-11.962 0.033)" fill="#fff"/>
  </g>
</svg>
